<svg width="1228" height="51" viewBox="0 0 1228 51" fill="none" xmlns="http://www.w3.org/2000/svg">
<path d="M22.59 48.11C22.45 48.53 22.1 48.95 21.54 49.37C21.0267 49.79 20.35 50 19.51 50H9.71C8.82333 50 8.07667 49.7433 7.47 49.23C6.91 48.67 6.58333 48.04 6.49 47.34L0.4 2.75V2.54C0.4 2.12 0.54 1.77 0.82 1.49C1.14667 1.16333 1.52 0.999997 1.94 0.999997H13.98C14.9133 0.999997 15.66 1.28 16.22 1.84C16.8267 2.4 17.1767 3.1 17.27 3.94L19.51 25.36L23.57 14.23C23.71 13.7633 24.0367 13.32 24.55 12.9C25.11 12.4333 25.81 12.2 26.65 12.2H31.41C32.25 12.2 32.9267 12.4333 33.44 12.9C34 13.32 34.35 13.7633 34.49 14.23L38.55 25.36L40.79 3.94C40.8833 3.1 41.21 2.4 41.77 1.84C42.3767 1.28 43.1467 0.999997 44.08 0.999997H56.12C56.54 0.999997 56.89 1.16333 57.17 1.49C57.4967 1.77 57.66 2.12 57.66 2.54V2.75L51.57 47.34C51.4767 48.04 51.1267 48.67 50.52 49.23C49.96 49.7433 49.2367 50 48.35 50H38.55C37.71 50 37.01 49.79 36.45 49.37C35.9367 48.95 35.61 48.53 35.47 48.11L29.03 33.34L22.59 48.11ZM78.1427 47.62C77.536 49.2067 76.486 50 74.9927 50H61.7627C61.3427 50 60.9693 49.86 60.6427 49.58C60.3627 49.2533 60.2227 48.88 60.2227 48.46L60.2927 48.04L75.5527 3.31C75.7393 2.70333 76.0893 2.16666 76.6027 1.7C77.116 1.23333 77.816 0.999997 78.7027 0.999997H98.1627C99.0493 0.999997 99.7493 1.23333 100.263 1.7C100.776 2.16666 101.126 2.70333 101.313 3.31L116.573 48.04L116.643 48.46C116.643 48.88 116.479 49.2533 116.153 49.58C115.873 49.86 115.523 50 115.103 50H101.873C100.379 50 99.3293 49.2067 98.7227 47.62L96.9727 42.72H79.8927L78.1427 47.62ZM88.4327 14.51L83.4627 29.07H93.4027L88.4327 14.51ZM171.845 0.999997C172.359 0.999997 172.802 1.18666 173.175 1.56C173.549 1.93333 173.735 2.37667 173.735 2.89V14.16C173.735 14.6733 173.549 15.1167 173.175 15.49C172.802 15.8633 172.359 16.05 171.845 16.05H156.795V48.11C156.795 48.6233 156.609 49.0667 156.235 49.44C155.862 49.8133 155.419 50 154.905 50H140.485C139.972 50 139.529 49.8133 139.155 49.44C138.782 49.0667 138.595 48.6233 138.595 48.11V16.05H123.545C123.032 16.05 122.589 15.8633 122.215 15.49C121.842 15.1167 121.655 14.6733 121.655 14.16V2.89C121.655 2.37667 121.842 1.93333 122.215 1.56C122.589 1.18666 123.032 0.999997 123.545 0.999997H171.845ZM200.728 31.1C200.728 33.0133 201.358 34.4833 202.618 35.51C203.925 36.5367 205.675 37.05 207.868 37.05C209.828 37.05 211.275 36.7233 212.208 36.07C213.141 35.4167 213.935 34.4367 214.588 33.13C215.195 31.9167 216.011 31.31 217.038 31.31H232.158C232.578 31.31 232.928 31.4733 233.208 31.8C233.535 32.08 233.698 32.43 233.698 32.85C233.698 35.6967 232.741 38.4967 230.828 41.25C228.915 43.9567 225.998 46.22 222.078 48.04C218.205 49.8133 213.468 50.7 207.868 50.7C202.875 50.7 198.418 49.9533 194.498 48.46C190.625 46.92 187.545 44.5867 185.258 41.46C182.971 38.2867 181.828 34.3433 181.828 29.63V21.37C181.828 16.6567 182.971 12.7367 185.258 9.61C187.545 6.43666 190.625 4.10333 194.498 2.61C198.418 1.07 202.875 0.299997 207.868 0.299997C213.468 0.299997 218.205 1.21 222.078 3.03C225.998 4.80333 228.915 7.06667 230.828 9.82C232.741 12.5267 233.698 15.3033 233.698 18.15C233.698 18.57 233.535 18.9433 233.208 19.27C232.928 19.55 232.578 19.69 232.158 19.69H217.038C216.011 19.69 215.195 19.0833 214.588 17.87C213.935 16.5633 213.141 15.5833 212.208 14.93C211.275 14.2767 209.828 13.95 207.868 13.95C205.675 13.95 203.925 14.4633 202.618 15.49C201.358 16.5167 200.728 17.9867 200.728 19.9V31.1ZM289.951 0.999997C290.464 0.999997 290.907 1.18666 291.281 1.56C291.654 1.93333 291.841 2.37667 291.841 2.89V48.11C291.841 48.6233 291.654 49.0667 291.281 49.44C290.907 49.8133 290.464 50 289.951 50H275.531C275.017 50 274.574 49.8133 274.201 49.44C273.827 49.0667 273.641 48.6233 273.641 48.11V33.2H259.641V48.11C259.641 48.6233 259.454 49.0667 259.081 49.44C258.707 49.8133 258.264 50 257.751 50H243.331C242.817 50 242.374 49.8367 242.001 49.51C241.627 49.1367 241.441 48.67 241.441 48.11V2.89C241.441 2.37667 241.627 1.93333 242.001 1.56C242.374 1.18666 242.817 0.999997 243.331 0.999997H257.751C258.264 0.999997 258.707 1.18666 259.081 1.56C259.454 1.93333 259.641 2.37667 259.641 2.89V17.24H273.641V2.89C273.641 2.37667 273.827 1.93333 274.201 1.56C274.574 1.18666 275.017 0.999997 275.531 0.999997H289.951ZM411.626 29.77C411.626 36.91 409.246 42.1833 404.486 45.59C399.773 48.9967 393.473 50.7 385.586 50.7C377.699 50.7 371.376 48.9967 366.616 45.59C361.903 42.1833 359.546 36.8633 359.546 29.63V21.37C359.546 16.61 360.666 12.6667 362.906 9.54C365.193 6.36667 368.296 4.03333 372.216 2.54C376.136 1.04666 380.593 0.299997 385.586 0.299997C390.579 0.299997 395.013 1.04666 398.886 2.54C402.806 4.03333 405.909 6.34333 408.196 9.47C410.483 12.5967 411.626 16.5167 411.626 21.23V29.77ZM378.446 31.1C378.446 33.0133 379.076 34.4833 380.336 35.51C381.643 36.5367 383.393 37.05 385.586 37.05C387.779 37.05 389.506 36.5367 390.766 35.51C392.073 34.4367 392.726 32.9433 392.726 31.03V19.97C392.726 18.0567 392.073 16.5867 390.766 15.56C389.506 14.4867 387.779 13.95 385.586 13.95C383.393 13.95 381.643 14.4633 380.336 15.49C379.076 16.5167 378.446 17.9867 378.446 19.9V31.1ZM445.059 50.7C437.219 50.7 430.989 48.9967 426.369 45.59C421.795 42.1833 419.509 36.8633 419.509 29.63V2.89C419.509 2.37667 419.695 1.93333 420.069 1.56C420.442 1.18666 420.885 0.999997 421.399 0.999997H436.029C436.542 0.999997 436.985 1.18666 437.359 1.56C437.732 1.93333 437.919 2.37667 437.919 2.89V30.75C437.919 32.6633 438.549 34.1333 439.809 35.16C441.115 36.1867 442.865 36.7 445.059 36.7C447.252 36.7 448.979 36.1867 450.239 35.16C451.545 34.1333 452.199 32.6633 452.199 30.75V2.89C452.199 2.37667 452.385 1.93333 452.759 1.56C453.132 1.18666 453.575 0.999997 454.089 0.999997H468.719C469.232 0.999997 469.675 1.18666 470.049 1.56C470.422 1.93333 470.609 2.37667 470.609 2.89V29.63C470.609 36.8633 468.299 42.1833 463.679 45.59C459.105 48.9967 452.899 50.7 445.059 50.7ZM528.681 0.999997C529.195 0.999997 529.638 1.18666 530.011 1.56C530.385 1.93333 530.571 2.37667 530.571 2.89V14.16C530.571 14.6733 530.385 15.1167 530.011 15.49C529.638 15.8633 529.195 16.05 528.681 16.05H513.631V48.11C513.631 48.6233 513.445 49.0667 513.071 49.44C512.698 49.8133 512.255 50 511.741 50H497.321C496.808 50 496.365 49.8133 495.991 49.44C495.618 49.0667 495.431 48.6233 495.431 48.11V16.05H480.381C479.868 16.05 479.425 15.8633 479.051 15.49C478.678 15.1167 478.491 14.6733 478.491 14.16V2.89C478.491 2.37667 478.678 1.93333 479.051 1.56C479.425 1.18666 479.868 0.999997 480.381 0.999997H528.681ZM647.137 0.999997C647.65 0.999997 648.093 1.18666 648.467 1.56C648.84 1.93333 649.027 2.37667 649.027 2.89V13.53C649.027 14.0433 648.84 14.4867 648.467 14.86C648.093 15.2333 647.65 15.42 647.137 15.42H619.627V19.9H642.587C643.1 19.9 643.543 20.0867 643.917 20.46C644.29 20.8333 644.477 21.2767 644.477 21.79V32.36C644.477 32.8733 644.29 33.3167 643.917 33.69C643.543 34.0633 643.1 34.25 642.587 34.25H619.627V48.11C619.627 48.6233 619.44 49.0667 619.067 49.44C618.693 49.8133 618.25 50 617.737 50H602.617C602.103 50 601.66 49.8133 601.287 49.44C600.913 49.0667 600.727 48.6233 600.727 48.11V2.89C600.727 2.37667 600.913 1.93333 601.287 1.56C601.66 1.18666 602.103 0.999997 602.617 0.999997H647.137ZM708.989 29.77C708.989 36.91 706.609 42.1833 701.849 45.59C697.136 48.9967 690.836 50.7 682.949 50.7C675.063 50.7 668.739 48.9967 663.979 45.59C659.266 42.1833 656.909 36.8633 656.909 29.63V21.37C656.909 16.61 658.029 12.6667 660.269 9.54C662.556 6.36667 665.659 4.03333 669.579 2.54C673.499 1.04666 677.956 0.299997 682.949 0.299997C687.943 0.299997 692.376 1.04666 696.249 2.54C700.169 4.03333 703.273 6.34333 705.559 9.47C707.846 12.5967 708.989 16.5167 708.989 21.23V29.77ZM675.809 31.1C675.809 33.0133 676.439 34.4833 677.699 35.51C679.006 36.5367 680.756 37.05 682.949 37.05C685.143 37.05 686.869 36.5367 688.129 35.51C689.436 34.4367 690.089 32.9433 690.089 31.03V19.97C690.089 18.0567 689.436 16.5867 688.129 15.56C686.869 14.4867 685.143 13.95 682.949 13.95C680.756 13.95 679.006 14.4633 677.699 15.49C676.439 16.5167 675.809 17.9867 675.809 19.9V31.1ZM770.212 47.83C770.305 48.0167 770.352 48.2267 770.352 48.46C770.352 48.88 770.189 49.2533 769.862 49.58C769.582 49.86 769.232 50 768.812 50H752.922C752.269 50 751.662 49.8367 751.102 49.51C750.589 49.1833 750.215 48.7633 749.982 48.25L743.822 34.39H737.942V48.11C737.942 48.6233 737.755 49.0667 737.382 49.44C737.009 49.8133 736.565 50 736.052 50H720.932C720.419 50 719.975 49.8133 719.602 49.44C719.229 49.0667 719.042 48.6233 719.042 48.11V2.89C719.042 2.37667 719.229 1.93333 719.602 1.56C719.975 1.18666 720.419 0.999997 720.932 0.999997H748.162C752.362 0.999997 756.025 1.67666 759.152 3.03C762.325 4.38333 764.752 6.34333 766.432 8.91C768.112 11.4767 768.952 14.4867 768.952 17.94C768.952 24.2867 766.502 28.8833 761.602 31.73L770.212 47.83ZM746.692 21.44C747.719 21.44 748.512 21.1133 749.072 20.46C749.632 19.76 749.912 18.8967 749.912 17.87C749.912 16.8433 749.632 15.9567 749.072 15.21C748.559 14.4167 747.765 14.02 746.692 14.02H737.942V21.44H746.692ZM861.157 0.999997C869.044 0.999997 875.344 2.70333 880.057 6.11C884.817 9.51666 887.197 14.79 887.197 21.93V29.07C887.197 36.35 884.841 41.67 880.127 45.03C875.461 48.3433 869.137 50 861.157 50H838.827C838.314 50 837.871 49.8133 837.497 49.44C837.124 49.0667 836.937 48.6233 836.937 48.11V2.89C836.937 2.37667 837.124 1.93333 837.497 1.56C837.871 1.18666 838.314 0.999997 838.827 0.999997H861.157ZM861.507 36.35C863.701 36.35 865.427 35.8367 866.687 34.81C867.994 33.7367 868.647 32.2433 868.647 30.33V20.67C868.647 18.7567 867.994 17.2867 866.687 16.26C865.427 15.1867 863.701 14.65 861.507 14.65H855.137V36.35H861.507ZM910.76 47.62C910.153 49.2067 909.103 50 907.61 50H894.38C893.96 50 893.587 49.86 893.26 49.58C892.98 49.2533 892.84 48.88 892.84 48.46L892.91 48.04L908.17 3.31C908.357 2.70333 908.707 2.16666 909.22 1.7C909.733 1.23333 910.433 0.999997 911.32 0.999997H930.78C931.667 0.999997 932.367 1.23333 932.88 1.7C933.393 2.16666 933.743 2.70333 933.93 3.31L949.19 48.04L949.26 48.46C949.26 48.88 949.097 49.2533 948.77 49.58C948.49 49.86 948.14 50 947.72 50H934.49C932.997 50 931.947 49.2067 931.34 47.62L929.59 42.72H912.51L910.76 47.62ZM921.05 14.51L916.08 29.07H926.02L921.05 14.51ZM1002.22 0.999997C1002.74 0.999997 1003.18 1.18666 1003.55 1.56C1003.93 1.93333 1004.11 2.37667 1004.11 2.89V48.11C1004.11 48.6233 1003.93 49.0667 1003.55 49.44C1003.18 49.8133 1002.74 50 1002.22 50H990.953C989.833 50 988.899 49.51 988.153 48.53L972.893 29.07V48.11C972.893 48.6233 972.706 49.0667 972.333 49.44C971.959 49.8133 971.516 50 971.003 50H957.983C957.469 50 957.026 49.8133 956.653 49.44C956.279 49.0667 956.093 48.6233 956.093 48.11V2.89C956.093 2.37667 956.279 1.93333 956.653 1.56C957.026 1.18666 957.469 0.999997 957.983 0.999997H969.323C970.443 0.999997 971.353 1.46666 972.053 2.4L987.313 23.47V2.89C987.313 2.37667 987.499 1.93333 987.873 1.56C988.246 1.18666 988.689 0.999997 989.203 0.999997H1002.22ZM1061.7 0.999997C1062.21 0.999997 1062.65 1.18666 1063.03 1.56C1063.4 1.93333 1063.59 2.37667 1063.59 2.89V48.11C1063.59 48.6233 1063.4 49.0667 1063.03 49.44C1062.65 49.8133 1062.21 50 1061.7 50H1050.43C1049.31 50 1048.37 49.51 1047.63 48.53L1032.37 29.07V48.11C1032.37 48.6233 1032.18 49.0667 1031.81 49.44C1031.43 49.8133 1030.99 50 1030.48 50H1017.46C1016.94 50 1016.5 49.8133 1016.13 49.44C1015.75 49.0667 1015.57 48.6233 1015.57 48.11V2.89C1015.57 2.37667 1015.75 1.93333 1016.13 1.56C1016.5 1.18666 1016.94 0.999997 1017.46 0.999997H1028.8C1029.92 0.999997 1030.83 1.46666 1031.53 2.4L1046.79 23.47V2.89C1046.79 2.37667 1046.97 1.93333 1047.35 1.56C1047.72 1.18666 1048.16 0.999997 1048.68 0.999997H1061.7ZM1108.78 35.65H1121.45C1121.96 35.65 1122.4 35.8367 1122.78 36.21C1123.15 36.5833 1123.34 37.0267 1123.34 37.54V48.11C1123.34 48.6233 1123.15 49.0667 1122.78 49.44C1122.4 49.8133 1121.96 50 1121.45 50H1077.07C1076.55 50 1076.11 49.8133 1075.74 49.44C1075.36 49.0667 1075.18 48.6233 1075.18 48.11V37.54C1075.18 37.0267 1075.36 36.5833 1075.74 36.21C1076.11 35.8367 1076.55 35.65 1077.07 35.65H1089.88V15.35H1077.07C1076.55 15.35 1076.11 15.1633 1075.74 14.79C1075.36 14.4167 1075.18 13.9733 1075.18 13.46V2.89C1075.18 2.37667 1075.36 1.93333 1075.74 1.56C1076.11 1.18666 1076.55 0.999997 1077.07 0.999997H1121.45C1121.96 0.999997 1122.4 1.18666 1122.78 1.56C1123.15 1.93333 1123.34 2.37667 1123.34 2.89V13.46C1123.34 13.9733 1123.15 14.4167 1122.78 14.79C1122.4 15.1633 1121.96 15.35 1121.45 15.35H1108.78V35.65ZM1181.41 36.35C1181.92 36.35 1182.37 36.5367 1182.74 36.91C1183.11 37.2833 1183.3 37.7267 1183.3 38.24V48.11C1183.3 48.6233 1183.11 49.0667 1182.74 49.44C1182.37 49.8133 1181.92 50 1181.41 50H1137.17C1136.66 50 1136.21 49.8133 1135.84 49.44C1135.47 49.0667 1135.28 48.6233 1135.28 48.11V2.89C1135.28 2.37667 1135.47 1.93333 1135.84 1.56C1136.21 1.18666 1136.66 0.999997 1137.17 0.999997H1180.71C1181.22 0.999997 1181.67 1.18666 1182.04 1.56C1182.41 1.93333 1182.6 2.37667 1182.6 2.89V12.76C1182.6 13.2733 1182.41 13.7167 1182.04 14.09C1181.67 14.4633 1181.22 14.65 1180.71 14.65H1153.48V19.06H1176.86C1177.37 19.06 1177.82 19.2467 1178.19 19.62C1178.56 19.9933 1178.75 20.4367 1178.75 20.95V30.05C1178.75 30.5633 1178.56 31.0067 1178.19 31.38C1177.82 31.7533 1177.37 31.94 1176.86 31.94H1153.48V36.35H1181.41ZM1225.34 0.999997C1225.86 0.999997 1226.3 1.18666 1226.67 1.56C1227.05 1.93333 1227.23 2.42333 1227.23 3.03L1227.16 29.7C1227.16 30.1667 1226.98 30.5867 1226.6 30.96C1226.23 31.2867 1225.79 31.45 1225.27 31.45H1211.13C1210.62 31.45 1210.18 31.2633 1209.8 30.89C1209.43 30.5167 1209.24 30.05 1209.24 29.49V3.17C1209.24 2.51666 1209.41 2.00333 1209.73 1.63C1210.11 1.21 1210.57 0.999997 1211.13 0.999997H1225.34ZM1225.27 34.39C1225.79 34.39 1226.23 34.5767 1226.6 34.95C1226.98 35.3233 1227.16 35.7667 1227.16 36.28V48.11C1227.16 48.6233 1226.98 49.0667 1226.6 49.44C1226.23 49.8133 1225.79 50 1225.27 50H1211.13C1210.62 50 1210.18 49.8133 1209.8 49.44C1209.43 49.0667 1209.24 48.6233 1209.24 48.11V36.28C1209.24 35.7667 1209.43 35.3233 1209.8 34.95C1210.18 34.5767 1210.62 34.39 1211.13 34.39H1225.27Z" fill="#E5FF00"/>
</svg>
